# xmcd CD database file
#
# Track frame offsets:
#	150
#	17462
#	38196
#	50815
#	69465
#	83220
#	96996
#	106667
#	117933
#
# Disc length: 1777 seconds
#
# Revision: 1
# Processed by: cddbd v1.5.2PL0 Copyright (c) Steve Scherf et al.
# Submitted via: CDex 1.72
#
DISCID=6e06ef09
DTITLE=Masters, Matt [CDN-08-Don Coyote-cty) - Don Coyote
DYEAR=2008
DGENRE=Country
TTITLE0=On The Trail
TTITLE1=Citizen
TTITLE2=First Day
TTITLE3=Soldier
TTITLE4=Highways
TTITLE5=What Do You Want?
TTITLE6=Rules Change
TTITLE7=Crazy
TTITLE8=Buddy Story
EXTD=YEAR: 2008
EXTT0=
EXTT1=
EXTT2=
EXTT3=
EXTT4=
EXTT5=
EXTT6=
EXTT7=
EXTT8=
PLAYORDER=
